<?xml version="1.0" encoding="UTF-8" standalone="no"?>
<svg
   xmlns:dc="http://purl.org/dc/elements/1.1/"
   xmlns:cc="http://creativecommons.org/ns#"
   xmlns:rdf="http://www.w3.org/1999/02/22-rdf-syntax-ns#"
   xmlns:svg="http://www.w3.org/2000/svg"
   xmlns="http://www.w3.org/2000/svg"
   xmlns:sodipodi="http://sodipodi.sourceforge.net/DTD/sodipodi-0.dtd"
   xmlns:inkscape="http://www.inkscape.org/namespaces/inkscape"
   width="210mm"
   height="297mm"
   viewBox="0 0 210 297"
   version="1.1"
   id="svg8"
   inkscape:version="1.0.1 (3bc2e813f5, 2020-09-07)"
   sodipodi:docname="delikanlılogo.svg">
  <defs
     id="defs2" />
  <sodipodi:namedview
     id="base"
     pagecolor="#ffffff"
     bordercolor="#666666"
     borderopacity="1.0"
     inkscape:pageopacity="0.0"
     inkscape:pageshadow="2"
     inkscape:zoom="0.35"
     inkscape:cx="400"
     inkscape:cy="560"
     inkscape:document-units="mm"
     inkscape:current-layer="layer1"
     inkscape:document-rotation="0"
     showgrid="false"
     inkscape:window-width="1440"
     inkscape:window-height="843"
     inkscape:window-x="0"
     inkscape:window-y="29"
     inkscape:window-maximized="1" />
  <metadata
     id="metadata5">
    <rdf:RDF>
      <cc:Work
         rdf:about="">
        <dc:format>image/svg+xml</dc:format>
        <dc:type
           rdf:resource="http://purl.org/dc/dcmitype/StillImage" />
        <dc:title></dc:title>
      </cc:Work>
    </rdf:RDF>
  </metadata>
  <g
     inkscape:label="Katman 1"
     inkscape:groupmode="layer"
     id="layer1">
    <path
       style="fill:#000000;stroke-width:0.528286"
       d="m 171.35739,234.00356 c -22.41883,-9.3372 -20.7048,-8.74213 -22.0755,-7.66395 -0.67678,0.53237 -2.04873,2.76135 -3.04879,4.95332 -1.07531,2.35694 -2.14206,3.99023 -2.6107,3.99721 -0.52401,0.007 -1.66937,-2.17821 -3.3813,-6.45338 -1.42389,-3.55585 -3.27465,-8.15552 -4.11282,-10.2215 l -1.52393,-3.75632 -15.43376,-0.46997 c -15.26651,-0.46487 -24.16521,-0.4747 -33.39548,-0.037 -2.615015,0.12399 -6.437465,0.25562 -8.494325,0.29244 l -3.73977,0.0669 -1.08232,2.50937 c -0.59528,1.38014 -1.78052,4.29232 -2.63389,6.4715 -2.019693,5.15752 -3.114383,5.47487 -5.263478,1.52592 -0.826367,-1.51845 -1.871849,-2.9872 -2.323286,-3.26389 -0.599839,-0.36767 -3.799583,0.73526 -11.886427,4.0971 -6.08609,2.53012 -11.42223,4.63903 -11.858063,4.68647 -0.594584,0.0647 -0.831624,-0.58708 -0.949447,-2.61069 -0.118453,-2.0335 0.241158,-3.69931 1.461652,-6.77172 0.890281,-2.24115 1.498776,-4.26883 1.35223,-4.50594 -0.26055,-0.42159 -4.352401,-1.24156 -9.418857,-1.88748 l -2.535706,-0.32327 0.158421,-2.69565 0.158421,-2.69566 7.131856,-2.35907 c 3.922528,-1.29748 7.23448,-2.44894 7.359895,-2.5588 0.125341,-0.10992 -0.486868,-0.96878 -1.360645,-1.90873 -4.425809,-4.76104 -7.865962,-10.97476 -9.416416,-17.00823 -0.952667,-3.70728 -1.062598,-11.98258 -0.205952,-15.50363 0.331742,-1.36354 1.758113,-5.26859 3.169719,-8.67789 2.7671,-6.68312 3.000815,-8.07008 1.763234,-10.46331 -1.51387,-2.92748 -4.35932,-3.85737 -12.563942,-4.10585 -8.486691,-0.25702 -17.794403,0.30297 -16.687405,1.00398 1.463195,0.92655 -0.09329,0.45096 -2.948747,-0.90107 -2.605849,-1.23381 -2.920025,-1.55687 -2.920025,-3.00269 0,-1.2413 0.586766,-2.18541 2.509365,-4.03764 2.912747,-2.80614 7.733538,-5.41142 19.150348,-10.34935 8.536393,-3.69209 16.448328,-7.54046 18.179726,-8.8426 0.94142,-0.70803 0.105873,-1.44025 -12.235465,-10.72249 -7.285245,-5.47941 -13.623709,-10.60217 -14.085494,-11.38391 -0.4618,-0.78174 -0.83962,-2.474864 -0.83962,-3.762492 0,-1.887766 0.371755,-2.818314 1.919634,-4.805096 2.361007,-3.030436 4.851773,-3.983012 7.837883,-2.997506 1.082784,0.357349 7.472508,4.806624 14.19938,9.887294 l 12.230672,9.23755 0.403472,-4.93732 c 0.677216,-8.287109 1.949973,-16.027296 3.604115,-21.918231 1.423915,-5.071038 1.497667,-5.698297 0.765178,-6.507697 -1.371128,-1.515083 -0.926834,-3.503572 2.160567,-9.670123 4.285328,-8.559126 7.688193,-13.305924 10.283036,-14.344173 1.148091,-0.459374 2.347981,-0.835232 2.666411,-0.835232 0.31843,0 2.15601,-1.38495 4.08351,-3.077682 4.68522,-4.114524 7.75492,-6.143729 12.922155,-8.542099 5.51456,-2.559592 10.67342,-3.700509 16.73254,-3.700509 9.31225,0 18.04103,3.187374 26.57091,9.702529 2.55588,1.952189 5.2137,3.764886 5.90628,4.028192 1.22677,0.466427 1.2441,0.435204 0.67186,-1.211045 -0.32306,-0.929395 -1.39609,-3.071244 -2.38453,-4.759648 -0.98843,-1.688404 -1.68089,-3.37275 -1.53882,-3.743007 0.22973,-0.598642 11.82718,-5.073584 13.14894,-5.073584 0.33128,0 0.45695,2.442322 0.33927,6.59316 -0.18193,6.417412 -0.1539,6.61631 1.05162,7.460902 1.15104,0.806435 1.47844,0.802796 4.63456,-0.05151 1.86781,-0.505587 5.09446,-1.73321 7.17033,-2.728046 2.07587,-0.994836 4.10666,-1.739589 4.51286,-1.654995 0.74573,0.155276 6.48071,12.457709 6.48071,13.90214 0,0.636724 -0.99179,0.778702 -5.41492,0.775168 -2.97821,-0.003 -7.53198,-0.246864 -10.11948,-0.543294 -4.50095,-0.515635 -4.75815,-0.488605 -5.94321,0.624713 -0.78699,0.739317 -1.23866,1.765795 -1.23866,2.814915 0,0.908191 -0.27635,1.927601 -0.61411,2.265377 -0.46664,0.466622 -0.0845,1.754205 1.59156,5.361389 4.4999,9.685143 7.06785,19.787804 8.01911,31.54826 0.30249,3.73966 0.60099,7.11718 0.66335,7.50559 0.0651,0.40547 5.31448,-3.22319 12.32648,-8.52071 6.71721,-5.074818 13.10694,-9.521921 14.19938,-9.88246 3.07747,-1.015666 5.66847,-0.01497 7.92609,3.062168 2.07657,2.830101 2.45837,6.044175 1.00937,8.497132 -0.46178,0.78174 -6.80025,5.9045 -14.08549,11.38389 -12.34137,9.28226 -13.17689,10.01446 -12.23547,10.7225 1.7314,1.30215 9.64334,5.15052 18.17973,8.84261 11.45031,4.9524 16.23854,7.5441 19.18832,10.38594 2.19747,2.11705 2.524,2.69826 2.3773,4.23157 -0.13777,1.43961 -0.5215,1.94247 -2.01906,2.64567 -1.55345,0.72945 -2.52454,0.78783 -6.07528,0.36527 -2.32446,-0.27664 -8.14881,-0.42182 -12.94301,-0.32262 -7.78719,0.1611 -8.95496,0.30579 -10.95104,1.35684 -2.74842,1.4472 -4.06757,3.76312 -3.64582,6.40061 0.16757,1.04797 1.27008,4.16201 2.45001,6.92009 1.17994,2.7581 2.49385,6.35654 2.91981,7.99655 1.00688,3.87657 0.99075,12.06412 -0.0316,16.05752 -1.15674,4.5183 -4.45812,11.13395 -7.23927,14.50679 l -2.39584,2.90556 12.74868,4.27038 12.74867,4.27039 v 2.86147 2.86147 l -2.16235,-0.15845 c -1.1893,-0.0872 -4.61234,0.44775 -7.60677,1.18864 -2.99445,0.74091 -5.52788,1.3471 -5.62988,1.3471 -0.58287,0 -0.0548,3.67708 0.60698,4.22629 0.43584,0.36171 0.79242,1.12891 0.79242,1.7049 0,0.57596 0.59433,2.2305 1.32073,3.67671 1.65879,3.30261 1.90202,8.39272 0.3962,8.29192 -0.50847,-0.034 -4.49042,-1.54705 -8.84878,-3.36226 z m 8.61811,0.124 c -0.13133,-1.36164 -0.54683,-1.90111 -2.01453,-2.61605 -1.01696,-0.49538 -1.53621,-0.9121 -1.15392,-0.92606 0.3823,-0.0135 1.15492,0.22072 1.71694,0.52149 1.28515,0.68781 1.28027,0.43083 -0.0328,-1.72274 -0.58003,-0.95133 -1.05549,-2.3053 -1.05656,-3.00881 -0.001,-0.70351 -0.3631,-1.67815 -0.80448,-2.16587 -0.90371,-0.99858 -1.72066,-6.64406 -0.88689,-6.12875 0.28355,0.17523 3.33524,-0.40078 6.78153,-1.28005 3.44631,-0.87926 6.80089,-1.46678 7.45464,-1.30559 1.03097,0.25421 1.18864,0.0857 1.18864,-1.27066 0,-0.86006 -0.25652,-1.72229 -0.57005,-1.91607 -0.31353,-0.19377 -6.02859,-2.2176 -12.70013,-4.49739 l -12.13005,-4.14508 -2.70114,2.0444 c -5.42898,4.10904 -12.64726,6.85034 -21.44611,8.14463 -2.69903,0.39702 -5.01184,0.82636 -5.13956,0.95408 -0.31019,0.31019 6.71525,17.86419 7.14959,17.86419 0.18668,0 0.90611,-1.2099 1.59873,-2.68867 1.38943,-2.9665 3.93776,-5.76391 5.25068,-5.76391 0.77211,0 5.592,1.9118 22.72634,9.01432 3.34141,1.38507 6.26863,2.53849 6.50497,2.56314 0.23632,0.0247 0.35519,-0.7271 0.26413,-1.67055 z m -35.81282,-5.30546 c -0.0454,-1.57669 3.8508,-7.55552 5.43966,-8.34744 0.87189,-0.43458 0.79852,-0.2738 -0.30188,0.66142 -0.79959,0.67956 -2.27998,2.78081 -3.28979,4.66943 -1.00979,1.88862 -1.84139,3.24608 -1.84799,3.01659 z m 23.34578,-1.54575 c -2.11691,-0.88507 -3.7447,-1.71345 -3.61731,-1.84084 0.25149,-0.25149 8.25867,2.97214 8.25867,3.32488 0,0.38438 -0.73288,0.15005 -4.64136,-1.48404 z m -26.32891,-1.79144 c -0.19502,-0.55006 -0.67919,-1.80923 -1.07594,-2.79815 -0.39675,-0.98893 -0.63341,-1.88602 -0.52589,-1.99353 0.10752,-0.10752 0.70727,1.03608 1.3328,2.54128 0.62556,1.50523 1.02176,2.85235 0.88048,2.99363 -0.14122,0.14121 -0.41643,-0.19316 -0.61145,-0.74323 z m 20.67244,-0.72992 c -0.18508,-0.29947 0.0269,-0.38802 0.49711,-0.20762 0.91521,0.3512 1.08266,0.72986 0.32276,0.72986 -0.27342,0 -0.64236,-0.23501 -0.81987,-0.52224 z m -2.38103,-1.06262 c -0.47613,-0.3077 -0.54129,-0.51535 -0.16324,-0.5202 0.34604,-0.004 0.77609,0.22964 0.95567,0.5202 0.40536,0.65588 0.22247,0.65588 -0.79243,0 z m -3.69799,-1.36148 -1.32072,-0.79574 1.32072,0.35008 c 0.72639,0.19255 1.67731,0.55183 2.11314,0.7984 0.70438,0.39851 0.70438,0.44802 0,0.44567 -0.43583,-0.002 -1.38675,-0.36075 -2.11314,-0.79841 z m -3.69801,-1.54409 c -0.72639,-0.41524 -1.08298,-0.755 -0.79242,-0.755 0.29056,0 1.1226,0.33976 1.849,0.755 0.72639,0.41524 1.08298,0.75498 0.79243,0.75498 -0.29056,0 -1.12262,-0.33974 -1.84901,-0.75498 z m -13.6496,-2.13577 c -0.33776,-0.74129 -0.6048,-1.63377 -0.59343,-1.98331 0.012,-0.34951 0.37162,0.1731 0.80053,1.16138 0.90279,2.08009 0.71169,2.83847 -0.2071,0.82193 z m 36.36589,-2.73639 c 0,-0.66471 1.51004,-1.98233 1.865,-1.62736 0.14002,0.14001 -0.2223,0.68621 -0.80519,1.21372 -0.5829,0.52751 -1.05981,0.71365 -1.05981,0.41364 z m -118.990853,6.35547 c 6.87806,-2.76347 7.377567,-2.67914 9.664268,1.63133 0.709696,1.33779 1.425308,2.43235 1.590273,2.43235 0.347316,0 2.391437,-4.8007 3.108047,-7.29943 0.30246,-1.05454 0.30007,-1.5856 -0.006,-1.3963 -0.27187,0.16803 -0.49432,0.68771 -0.49432,1.15481 0,0.46712 -0.15086,0.69844 -0.33525,0.51405 -0.18438,-0.18439 -0.0301,-1.07211 0.34299,-1.97269 0.39304,-0.94885 0.82873,-1.39399 1.03606,-1.05852 0.21552,0.34872 0.5998,0.0478 0.96639,-0.75678 0.3684,-0.80853 0.40455,-1.3357 0.0916,-1.3357 -0.28433,0 -0.52059,0.29715 -0.52504,0.66036 -0.006,0.46215 -0.12459,0.48417 -0.39622,0.0734 -0.21347,-0.32286 -1.57677,-0.75255 -3.029552,-0.95488 -7.28845,-1.01498 -15.136472,-3.82124 -20.950091,-7.49121 l -1.970909,-1.24419 -6.765357,2.3241 c -3.720949,1.27825 -7.181378,2.48687 -7.689855,2.68581 -0.570219,0.22312 -0.924498,0.92125 -0.924498,1.82182 0,1.42204 0.09719,1.46965 3.731192,1.82773 2.052163,0.20223 4.775086,0.68183 6.050944,1.0658 1.705161,0.51318 2.386704,0.53884 2.572485,0.0969 0.909777,-2.16453 -0.56718,3.7409 -1.603796,6.41259 -0.707615,1.82375 -1.153736,3.53086 -0.991361,3.79357 0.162359,0.2627 0.05361,0.62697 -0.241712,0.80947 -0.295308,0.1825 -0.536915,1.01627 -0.536915,1.85282 v 1.52097 l 5.679069,-2.38897 c 3.123491,-1.31394 8.355989,-3.46452 11.627778,-4.77904 z m -13.872983,2.0859 c 0.764175,-0.71016 6.13383,-2.89433 6.417682,-2.61048 0.13193,0.13193 -0.42607,0.48191 -1.239932,0.77779 -0.813863,0.29587 -2.430672,0.93974 -3.592898,1.4308 -1.162227,0.49105 -1.875413,0.6719 -1.584852,0.40189 z m 25.629936,-1.8211 c -0.0045,-0.49133 0.229642,-1.04026 0.520202,-1.21982 0.668593,-0.41322 0.668593,0.28613 0,1.32071 -0.441329,0.6829 -0.513224,0.66896 -0.520202,-0.10094 z m -1.955124,-0.82361 c -0.180959,-0.50848 -0.428855,-1.16223 -0.550887,-1.45279 -0.122046,-0.29056 0.152371,-0.0668 0.609753,0.49719 0.8305,1.02412 1.081317,1.8801 0.550887,1.8801 -0.154408,0 -0.428795,-0.41603 -0.609753,-0.9245 z m -15.424921,-0.92553 c 2.009334,-1.09198 7.163304,-3.064 6.54211,-2.50314 -0.590765,0.53338 -6.998384,3.30848 -7.562897,3.27544 -0.198764,-0.012 0.260595,-0.35917 1.020787,-0.7723 z m 13.663363,-2.12489 c -0.367547,-0.44285 -0.565936,-0.9075 -0.440909,-1.03254 0.125041,-0.12504 0.517537,0.2373 0.87219,0.80519 0.766976,1.22812 0.511188,1.36296 -0.431281,0.22735 z m -22.472646,-6.30986 c -0.564005,-0.42659 -0.757422,-0.78318 -0.429799,-0.79242 0.327624,-0.009 0.891613,0.33979 1.253335,0.77562 0.835098,1.00625 0.493832,1.01321 -0.823536,0.0168 z m -2.445242,-1.1701 c 0.381354,-0.15261 0.836999,-0.13388 1.012551,0.0416 0.175552,0.17554 -0.136422,0.3004 -0.693374,0.27746 -0.615428,-0.0253 -0.740605,-0.15053 -0.319177,-0.31917 z m 52.66348,1.47118 c 2.03389,-0.24146 7.26392,-0.24239 11.62229,-10e-4 33.62129,1.85398 45.88846,0.49775 56.7907,-6.27872 11.54215,-7.1742 18.33548,-22.30396 15.6588,-34.87451 -0.45175,-2.12159 -1.80169,-6.0441 -2.99987,-8.71671 -3.73414,-8.32926 -3.4153,-13.3976 0.98404,-15.64198 3.62608,-1.84988 7.95365,-2.26656 19.36673,-1.86466 13.95962,0.49157 15.10697,-0.002 10.44179,-4.4879 -2.97153,-2.85759 -6.87536,-4.96934 -18.62206,-10.07341 -8.72494,-3.79109 -17.84289,-8.30076 -19.79065,-9.7883 -1.01999,-0.77901 -1.0158,-0.81147 0.26415,-2.04037 0.71535,-0.68683 6.8824,-5.45571 13.70455,-10.59754 6.82215,-5.14182 12.82324,-9.98457 13.33573,-10.76167 1.39748,-2.118949 1.14796,-3.892577 -0.93064,-6.614827 -1.97738,-2.589691 -3.52756,-3.307039 -6.05436,-2.801677 -0.85001,0.169996 -7.4622,4.745945 -14.69376,10.168774 l -13.14827,9.8597 0.51516,2.44015 c 0.28334,1.34207 0.96105,3.07117 1.50605,3.84241 0.54499,0.77124 0.9909,1.55788 0.9909,1.74811 0,0.77834 -1.12422,-0.43622 -2.3676,-2.5579 -1.19487,-2.0389 -1.37688,-3.1464 -1.87189,-11.39017 -0.64316,-10.710905 -1.94091,-17.982882 -4.71907,-26.443292 -1.61368,-4.91413 -4.68552,-12.119334 -5.59943,-13.133727 -0.14121,-0.156684 -14.64795,12.005089 -28.23315,23.669256 -9.14429,7.851227 -12.61682,10.592793 -13.41708,10.592793 -0.48009,0 -11.01574,-5.113416 -23.412555,-11.363138 -12.396809,-6.249737 -22.717432,-11.1826 -22.934689,-10.961928 -0.678654,0.689285 -2.943192,9.151942 -3.853539,14.400778 -0.478736,2.760302 -1.086573,8.712848 -1.350732,13.227888 -0.264174,4.51505 -0.737131,8.88464 -1.051007,9.71021 -0.745098,1.95974 -2.589212,4.53277 -3.248682,4.53277 -0.285544,0 0.06125,-0.77263 0.770555,-1.71694 0.709367,-0.94431 1.518048,-2.81499 1.797078,-4.15706 l 0.507338,-2.44065 -13.148282,-9.8597 C 31.16326,92.854331 24.551068,88.278382 23.701055,88.108371 c -2.526796,-0.505347 -4.07698,0.212001 -6.054358,2.801677 -2.07437,2.716725 -2.328062,4.496012 -0.94094,6.599172 0.506844,0.76845 7.023212,6.02997 14.480805,11.69227 10.610285,8.05603 13.711463,10.16496 14.259099,9.69679 0.384918,-0.32906 0.0015,0.17592 -0.85103,1.12214 -1.833408,2.03385 -8.540003,5.56278 -19.836504,10.43776 -4.503634,1.94353 -10.090262,4.51748 -12.414715,5.7199 -4.007512,2.07305 -9.244997,6.36873 -9.244997,7.58256 0,1.52182 3.183541,1.89091 13.094088,1.51809 10.759061,-0.40473 15.715391,0.0701 19.180028,1.83768 4.444962,2.26764 4.775475,7.30489 1.02781,15.66431 -3.973967,8.86417 -4.624482,16.27923 -2.099259,23.9287 4.927727,14.92717 15.785999,23.33361 33.670702,26.0677 4.323021,0.66086 17.588536,0.59098 23.614476,-0.12444 z m -13.898365,-2.94802 c -7.03825,-2.19695 -13.947125,-11.67868 -17.575723,-24.12086 -1.632608,-5.59812 -2.004363,-17.93407 -0.76506,-25.38668 2.162604,-13.00472 8.169551,-26.03128 15.372073,-33.33554 1.13559,-1.15164 1.7725,-2.1914 1.49734,-2.44442 -0.26335,-0.24217 -1.66747,-0.83204 -3.12026,-1.31081 C 62.489083,119.61018 56.2576,106.51771 60.56563,96.77867 c 2.072813,-4.685894 8.504785,-9.912283 12.198825,-9.912283 0.57987,0 7.86849,3.820204 16.196915,8.489327 8.32842,4.669136 15.41659,8.378466 15.75146,8.242956 0.54807,-0.22178 23.82371,-19.530217 28.34385,-23.512795 2.24543,-1.978395 2.69409,-2.006159 6.18142,-0.382507 12.43038,5.787443 14.39711,26.202252 3.67336,38.129652 -2.30485,2.56355 -7.77357,6.01337 -9.53251,6.01337 -1.25287,0 -1.10123,0.31897 1.71497,3.60764 10.13924,11.84017 15.40305,26.80809 15.45185,43.93806 0.0394,13.79816 -3.99077,25.28141 -11.67794,33.27499 -4.45006,4.62742 -6.55736,5.52992 -12.94301,5.5431 -2.90556,0.006 -9.11696,-0.45339 -13.80309,-1.02086 l -8.52024,-1.03177 -9.17733,1.17485 c -10.344845,1.32432 -13.462525,1.39356 -16.736265,0.37168 z m 55.430985,-2.20926 c 4.81461,-2.62045 10.03493,-9.62501 13.09429,-17.56972 5.38898,-13.99452 3.9763,-32.74465 -3.65083,-48.45618 -2.57125,-5.29665 -7.34448,-12.20339 -10.513,-15.21201 -2.01733,-1.91553 -2.06746,-2.81681 -0.18131,-3.2602 2.93944,-0.69102 7.65994,-3.63177 10.01855,-6.24134 3.17598,-3.51387 5.77852,-9.08042 6.52183,-13.94946 1.0539,-6.903622 -1.00256,-14.074893 -5.30855,-18.511933 -2.0263,-2.087968 -5.6176,-4.295301 -6.98838,-4.295301 -0.37691,0 -2.15648,1.28306 -3.95458,2.851259 -8.13201,7.092173 -27.07477,22.506465 -27.65841,22.506465 -0.35592,0 -7.30829,-3.72511 -15.44971,-8.27802 -8.141405,-4.552901 -15.318395,-8.376609 -15.948855,-8.497128 -1.85716,-0.355028 -5.914345,1.908957 -8.424803,4.7012 -3.049559,3.391848 -4.168883,6.756298 -3.898359,11.717678 0.483214,8.86216 7.027316,15.82129 16.941992,18.01645 0.79904,0.17692 1.45279,0.5059 1.45279,0.7311 0,0.22519 -1.31934,1.82533 -2.93187,3.55586 -7.30025,7.83444 -12.548293,18.43201 -15.100891,30.49382 -1.675121,7.9154 -1.673114,20.02402 0.0045,26.27358 1.288751,4.8014 4.332814,11.76694 6.601246,15.10523 2.400725,3.53299 6.308935,7.19387 9.049875,8.47717 3.18734,1.49231 8.271375,1.63544 16.376845,0.46108 7.10927,-1.03002 15.57443,-0.9357 23.24457,0.259 8.46614,1.31867 13.11542,1.07411 16.70321,-0.8786 z M 99.04852,139.65051 c -6.46028,-4.14178 -16.744675,-15.44981 -15.334105,-16.86037 1.17475,-1.17474 13.132655,-2.76079 20.814835,-2.76079 7.6508,0 19.63872,1.58464 20.80409,2.75001 0.70325,0.70326 -1.63301,4.04452 -6.1654,8.81756 -5.60689,5.90462 -12.29104,10.75032 -14.80096,10.73001 -0.63714,-0.004 -3.03044,-1.20956 -5.31846,-2.67642 z m 7.06452,0.83734 c 4.84406,-2.50495 10.98546,-7.7705 15.66912,-13.43447 1.54475,-1.86807 2.73907,-3.46604 2.65405,-3.55105 -0.0851,-0.0851 -3.23192,-0.66283 -6.99311,-1.28401 -8.94882,-1.47796 -17.43228,-1.48224 -26.03021,-0.0135 -3.58204,0.61206 -6.629255,1.11283 -6.771615,1.11283 -0.49913,0 2.142175,3.36186 5.259485,6.69427 3.54867,3.79354 8.61197,7.96635 12.0539,9.93393 2.74612,1.56982 2.28598,1.50989 4.15838,0.54163 z m -4.22522,-3.4344 c -0.43583,-0.28167 -0.55468,-0.5121 -0.26414,-0.5121 0.29056,0 0.88489,0.23043 1.32072,0.5121 0.43583,0.28166 0.55471,0.5121 0.26415,0.5121 -0.29056,0 -0.88488,-0.23044 -1.32073,-0.5121 z m 5.28286,-0.48799 c 1.01696,-0.57892 2.0802,-1.06254 2.36276,-1.07472 0.85701,-0.037 -1.47782,1.39563 -2.89105,1.77384 -0.98589,0.26384 -0.85196,0.0866 0.52829,-0.69912 z m -7.66015,-0.56858 c -0.17956,-0.29056 -0.0888,-0.52829 0.20179,-0.52829 0.29056,0 0.67522,0.23773 0.8548,0.52829 0.17958,0.29055 0.0888,0.52828 -0.20179,0.52828 -0.29056,0 -0.67522,-0.23773 -0.8548,-0.52828 z m -2.14424,-1.30392 c -0.56401,-0.42659 -0.75741,-0.78318 -0.42979,-0.79243 0.32761,-0.009 0.89162,0.3398 1.25332,0.77563 0.83512,1.00625 0.49385,1.01321 -0.82353,0.0168 z m 12.97411,0.59766 c 0,-0.14526 0.89148,-0.79579 1.98108,-1.4456 1.08958,-0.6498 3.05084,-2.03822 4.35834,-3.08538 3.63244,-2.90915 4.65507,-3.55402 2.90558,-1.83226 -2.46214,2.42313 -9.245,7.09171 -9.245,6.36324 z m -10.40407,-2.87001 c -6.75838,-4.07031 -9.33158,-6.0492 -8.48328,-6.52394 0.70218,-0.39295 6.97741,1.67713 7.79334,2.57088 0.37379,0.40943 -1.39159,-0.12759 -4.62249,-1.40621 -1.52542,-0.60366 -2.7735,-0.99806 -2.7735,-0.87643 0,0.46262 7.21654,5.23995 9.91319,6.56251 l 2.8208,1.38346 3.51558,-1.82275 c 1.93358,-1.0025 4.50641,-2.57904 5.71739,-3.50342 2.15292,-1.64334 5.2302,-3.4645 4.18319,-2.47564 -3.2745,3.09265 -11.60382,8.08708 -13.46291,8.0726 -0.73101,-0.006 -2.80159,-0.89715 -4.60131,-1.98106 z m -4.98361,0.53862 c -0.65711,-0.83788 -0.63843,-0.85657 0.19946,-0.19945 0.50848,0.39877 0.9245,0.81479 0.9245,0.9245 0,0.4348 -0.43382,0.15494 -1.12396,-0.72505 z m -4.1589,-2.80003 c -1.3075,-1.17526 -1.90183,-1.88989 -1.3207,-1.5881 1.48267,0.77003 4.82174,3.72808 4.20633,3.72635 -0.27958,-5.2e-4 -1.57811,-0.963 -2.88563,-2.13825 z m 12.15058,0.19273 c -0.43583,-0.17485 -1.36028,-0.52814 -2.05433,-0.78511 -0.69406,-0.25697 -1.13976,-0.58937 -0.99046,-0.73869 0.1493,-0.1493 1.25624,0.1225 2.45984,0.60414 2.10364,0.84171 2.29219,0.83093 4.87179,-0.27879 1.47591,-0.63491 2.80494,-1.03292 2.95341,-0.88444 0.33702,0.33703 -3.34766,1.91307 -5.12711,2.193 -0.72639,0.11426 -1.67731,0.0647 -2.11314,-0.11007 z m 9.77549,-3.2964 c 3.33519,-1.48592 5.04143,-1.75271 2.11094,-0.33008 -1.45279,0.70527 -2.99802,1.28011 -3.43387,1.27741 -0.43583,-0.003 0.15949,-0.42899 1.32293,-0.94733 z M 102.02618,117.0135 c -1.00455,-0.83817 -2.55364,-1.0477 -10.30157,-1.39338 -5.34927,-0.23866 -8.573215,-0.56618 -7.798495,-0.79226 l 1.320715,-0.38536 -1.320715,-0.11711 c -1.19917,-0.10632 2.504065,-0.83743 9.140995,-1.80474 l 2.53741,-0.36983 -2.37365,-1.81241 c -2.42863,-1.8544 -3.49361,-2.23854 -3.49361,-1.26013 0,1.19346 -2.61825,3.1457 -4.21885,3.1457 -1.880925,0 -2.794995,-1.42957 -1.409765,-2.20479 1.145435,-0.64101 1.132545,-3.01203 -0.0187,-3.45383 -0.49847,-0.19127 -0.98459,-0.0672 -1.10059,0.28072 -0.11426,0.34283 -0.57728,0.62332 -1.02892,0.62332 -0.68109,0 -0.76483,-0.47902 -0.49104,-2.80865 l 0.33011,-2.80866 -3.43062,-2.51892 c -1.88683,-1.38541 -3.30627,-2.72011 -3.15432,-2.966002 0.15197,-0.24586 -10e-4,-0.619063 -0.34224,-0.829313 -0.38628,-0.238731 -0.477,-0.153269 -0.24158,0.227651 0.20733,0.33544 0.11771,0.609902 -0.19909,0.609902 -0.65279,0 -1.35418,-1.477945 -0.91147,-1.920636 0.1596,-0.159634 7.17903,3.428838 15.598685,7.974358 l 15.30847,8.26458 14.88541,-12.04579 c 8.18697,-6.625182 15.08498,-12.118681 15.32892,-12.207767 0.5602,-0.204589 0.36034,1.312217 -0.24556,1.863612 -0.24875,0.226377 -0.25852,0.07772 -0.0217,-0.330484 0.26821,-0.462294 0.22728,-0.616387 -0.10856,-0.408818 -0.29649,0.183234 -0.45099,0.99259 -0.34335,1.79856 0.10767,0.805956 0.0698,1.209833 -0.084,0.897484 -0.15387,-0.312334 -2.51343,1.698617 -5.24343,4.468802 l -4.96365,5.036721 1.55616,0.94636 c 1.83536,1.11615 2.6989,3.0794 2.48014,5.63856 -0.15142,1.77131 -0.1962,1.8082 -1.09594,0.90302 -0.51595,-0.51906 -1.28856,-0.80926 -1.71693,-0.64488 -1.05579,0.40515 -0.98885,2.80344 0.0952,3.4101 1.27326,0.71257 0.49064,2.20479 -1.15637,2.20479 -2.88801,0 -5.00057,-2.49324 -5.00057,-5.90172 v -1.7279 l -3.43385,3.40333 c -1.88862,1.87184 -3.43386,3.54468 -3.43386,3.71743 0,0.17276 3.26876,0.76656 7.26393,1.31954 3.99516,0.553 6.66961,1.10857 5.94322,1.2346 l -1.32073,0.22917 1.32073,0.36098 c 0.72639,0.19854 -3.0053,0.54569 -8.29263,0.77144 -8.4363,0.36021 -9.7238,0.53253 -10.51551,1.40737 -1.13707,1.25645 -2.77382,1.24702 -4.29809,-0.0247 z m 10.07334,-2.68606 5.37274,-0.27386 -3.83007,-0.4401 c -3.01569,-0.34654 -3.83008,-0.62401 -3.83008,-1.30499 0,-0.47568 3.74422,-4.66614 8.3205,-9.31211 4.57628,-4.64599 7.48846,-7.708997 6.4715,-6.806692 -3.17499,2.817072 -19.09884,15.570572 -19.73458,15.805532 -0.33242,0.12279 -5.42365,-2.36164 -11.31382,-5.5211 -5.89015,-3.15946 -10.451495,-5.43373 -10.136285,-5.05394 0.41841,0.50417 0.35754,1.10733 -0.22556,2.23492 -0.78051,1.50935 -0.77034,1.53897 0.44841,1.30599 1.722265,-0.32923 3.152615,1.85546 2.665835,4.07175 -0.21358,0.9725 -0.13956,1.60633 0.18751,1.60633 0.75306,0 2.18506,-2.15432 2.18506,-3.28726 0,-0.51646 0.38696,-0.93902 0.8599,-0.93902 1.17608,0 8.12095,5.21054 8.12095,6.09292 0,0.44745 -0.92807,0.83508 -2.50935,1.04811 -4.04548,0.54502 -3.84458,0.69728 0.97844,0.74155 3.87163,0.0355 4.81013,0.22588 6.33945,1.28583 l 1.79504,1.24413 1.23083,-1.11205 c 1.02679,-0.92772 2.12148,-1.15746 6.60358,-1.38594 z m 10.57759,-5.26695 c -0.44491,-2.22448 1.04466,-4.42331 2.77269,-4.09298 l 1.28062,0.2448 -0.95692,-1.64492 c -1.23081,-2.11576 -3.35595,-2.47294 -4.55217,-0.76512 -1.07594,1.53614 -1.08737,5.14049 -0.0211,6.66278 1.15559,1.64984 1.84974,1.45969 1.47689,-0.40456 z m 8.00228,-17.967881 c 0.52591,-0.581121 0.83733,-1.056578 0.69206,-1.056578 -0.14526,0 -0.69444,0.475457 -1.22033,1.056578 -0.52591,0.581106 -0.83733,1.056563 -0.69206,1.056563 0.14526,0 0.69444,-0.475457 1.22033,-1.056563 z M 78.968875,110.10937 c -1.05075,-1.16307 -1.91047,-2.4046 -1.91047,-2.75899 0,-0.35437 0.39305,-0.0564 0.87345,0.66188 0.4804,0.71842 1.47579,1.95995 2.21197,2.75899 0.73621,0.79902 1.20286,1.45278 1.03702,1.45278 -0.16581,0 -1.1612,-0.9516 -2.21197,-2.11466 z m 51.446375,0.26565 c 0.68242,-0.72639 1.35961,-1.3207 1.5049,-1.3207 0.14526,0 -0.2942,0.59431 -0.97661,1.3207 -0.68242,0.7264 -1.35962,1.32073 -1.50489,1.32073 -0.14526,0 0.29419,-0.59433 0.9766,-1.32073 z m 2.93953,-4.11699 c 0.19839,-0.52101 0.49379,-0.81421 0.65645,-0.65155 0.16264,0.16266 3.3e-4,0.58892 -0.3607,0.94729 -0.52175,0.51785 -0.58243,0.45717 -0.29575,-0.29574 z m -80.484546,98.90628 c -7.116432,-3.64874 -12.339825,-9.63771 -15.429383,-17.69083 -0.876114,-2.28365 -1.27391,-4.66034 -1.460484,-8.72603 -0.259847,-5.6622 0.268831,-8.76663 2.33221,-13.69487 0.668725,-1.5972 0.844712,-1.72407 1.29227,-0.93159 0.335351,0.59379 0.338765,1.61871 0.01048,2.90557 -1.011518,3.95555 -1.195666,7.5196 -0.593685,11.49091 1.851527,12.21457 8.255836,21.84369 17.711277,26.62958 1.736339,0.87884 2.879263,1.6074 2.539839,1.61901 -0.339438,0.012 -0.954253,0.15044 -1.366246,0.30854 -0.411993,0.15811 -2.677969,-0.70153 -5.035502,-1.91029 z m 4.641599,1.09456 c -0.435833,-0.28167 -1.030147,-0.5121 -1.320707,-0.5121 -0.290561,0 -0.171689,0.23043 0.264144,0.5121 0.435833,0.28166 1.030147,0.5121 1.320708,0.5121 0.29056,0 0.171688,-0.23044 -0.264145,-0.5121 z m -3.169704,-1.30213 c 0,-0.13507 -0.534893,-0.50476 -1.188642,-0.82157 -1.141442,-0.55313 -1.147911,-0.54338 -0.163183,0.24554 1.077842,0.86354 1.351825,0.98028 1.351825,0.57603 z m -6.23286,-4.95104 c -6.362888,-6.49101 -10.116438,-15.82176 -10.221578,-25.40923 -0.0584,-5.32819 -0.582379,-5.21404 -1.21726,0.26522 -1.008853,8.70694 3.937129,20.00597 11.400906,26.04519 1.842453,1.49081 3.401323,2.71056 3.464143,2.71056 0.06289,0 -1.478978,-1.62527 -3.426211,-3.61174 z m -8.604365,-35.21725 c 0.01602,-0.29056 -0.201399,-0.1717 -0.483065,0.26413 -0.281665,0.43585 -0.499042,1.14904 -0.483064,1.58487 0.0307,0.83671 0.911126,-0.84832 0.966129,-1.849 z m -29.492505,-23.4664 c -0.893185,-0.56844 5.955089,-4.11875 16.858869,-8.74007 8.541755,-3.62023 15.316591,-7.05752 18.820942,-9.54902 1.415694,-1.00651 2.653859,-1.59037 2.751496,-1.29748 0.09764,0.29291 0.418657,0.38353 0.713396,0.20137 1.250549,-0.77289 -0.705084,1.8477 -2.863824,3.83753 -4.716145,4.34719 -11.294329,7.53889 -26.412052,12.81495 -4.280357,1.49385 -8.084013,2.82667 -8.452564,2.96184 -0.368565,0.13522 -1.005872,0.032 -1.416263,-0.22912 z m 1.798995,-0.56456 c 0.185076,-0.29946 -0.02695,-0.38802 -0.497111,-0.20761 -0.915214,0.35119 -1.082664,0.72985 -0.322757,0.72985 0.273399,0 0.642339,-0.235 0.819868,-0.52224 z m 2.381014,-1.06261 c 0.435848,-0.28167 0.554705,-0.5121 0.264145,-0.5121 -0.290561,0 -0.884875,0.23043 -1.320708,0.5121 -0.435833,0.28166 -0.554705,0.5121 -0.264144,0.5121 0.29056,0 0.884874,-0.23044 1.320707,-0.5121 z m 10.127999,-3.75564 c 9.181713,-3.2739 16.698547,-7.0373 20.447485,-10.23732 2.968035,-2.53348 3.239158,-3.24036 0.426054,-1.11088 -2.29633,1.73829 -9.553977,5.31769 -19.937584,9.83303 -4.777663,2.07758 -8.785713,3.8757 -8.906786,3.99583 -0.483903,0.48015 0.70423,0.11037 7.970831,-2.48066 z M 116.87827,85.941814 c 6.77749,-5.738505 15.79786,-13.362126 20.04526,-16.941396 9.67062,-8.149409 10.53316,-9.133628 10.08728,-11.510359 -0.22518,-1.200278 -0.13403,-1.792586 0.27602,-1.792586 0.33676,0 1.15215,-0.582513 1.81195,-1.294456 1.13615,-1.225915 1.37951,-1.270017 4.59727,-0.833195 1.86869,0.253692 6.2282,0.629295 9.68779,0.834678 6.01474,0.357079 6.27403,0.329944 5.92135,-0.619592 -0.20285,-0.546154 -1.36933,-3.322165 -2.59217,-6.168902 -1.634,-3.803896 -2.4334,-5.108041 -3.01576,-4.91994 -0.43585,0.140765 -2.8663,1.113438 -5.40102,2.16148 -5.8436,2.416191 -9.06176,2.823991 -11.27517,1.428768 -1.59635,-1.006262 -1.61438,-1.066537 -1.23321,-4.125515 0.65234,-5.235299 0.56899,-9.304897 -0.18439,-9.0033 -0.3632,0.145407 -2.87129,1.020847 -5.57355,1.945435 -2.70226,0.924588 -4.83313,1.835789 -4.73527,2.024879 2.34188,4.524853 4.10146,8.419588 4.10146,9.078339 0,0.462025 0.73186,1.381147 1.62638,2.042489 1.85048,1.368118 1.74843,2.124851 -0.12773,0.94732 -0.67896,-0.426129 -2.42311,-1.162212 -3.8759,-1.635722 -1.52949,-0.498519 -4.30658,-2.194335 -6.59699,-4.028417 -8.22351,-6.585102 -16.50248,-9.680306 -25.89259,-9.680306 -10.50039,0 -18.74651,3.426766 -28.549725,11.864129 -1.95885,1.685934 -4.24098,3.228062 -5.07141,3.426945 -3.521046,0.843289 -3.610836,1.169864 -0.91608,3.331913 l 2.48975,1.997564 3.46363,-3.671622 C 87.84463,38.186667 103.09575,34.218539 117.64297,39.951323 c 3.85453,1.519007 2.65362,2.05974 -3.68526,1.659368 -12.69984,-0.802122 -25.21349,3.533328 -35.727255,12.377982 l -2.79012,2.347186 2.45372,1.5561 c 6.1236,3.883473 13.893045,7.315105 19.512545,8.618351 11.26645,2.612858 24.05077,-1.446976 39.71599,-12.612386 5.5307,-3.942025 7.2057,-4.474133 2.41128,-0.766032 -6.27108,4.850201 -13.00003,8.747946 -20.21259,11.708134 -10.36336,4.253342 -18.06547,4.297488 -29.09465,0.166747 -5.159,-1.932198 -15.020935,-7.340443 -15.456885,-8.476494 -0.1818,-0.473779 0.75439,-1.650322 2.49952,-3.141221 C 85.127,46.675979 94.42242,42.420316 104.08893,41.110375 c 3.42904,-0.46469 7.56746,-0.688177 9.68535,-0.523047 3.60067,0.280751 3.64545,0.26937 1.70124,-0.432329 -6.45584,-2.330039 -14.08958,-2.358791 -21.27455,-0.08012 -6.04343,1.916624 -10.345865,4.648818 -16.071585,10.205945 -2.7682,2.686699 -5.27082,4.880391 -5.56138,4.874895 -0.29056,-0.006 -1.1226,-0.486868 -1.84899,-1.069681 -0.7264,-0.582813 -1.94393,-1.522871 -2.705631,-2.089031 l -1.38492,-1.029384 -2.169207,3.092433 c -2.966538,4.229097 -8.643495,15.779035 -8.290983,16.868228 0.156983,0.485057 1.058405,1.397515 2.003149,2.027694 1.331939,0.888453 45.615147,23.29485 46.238947,23.39596 0.0798,0.0135 5.69043,-4.671607 12.46793,-10.410112 z M 34.027698,153.75737 c -2.063498,-2.02561 -2.06844,-2.03982 -0.411873,-1.18318 1.420876,0.73477 3.235145,2.86862 2.675319,3.14657 -0.09614,0.0478 -1.114726,-0.83577 -2.263446,-1.96339 z m 138.650412,2.08674 c 0,-1.49548 2.31777,-3.5446 4.75457,-4.20348 0.89995,-0.24334 0.70475,-0.0189 -0.61272,0.70446 -1.06339,0.58386 -2.43033,1.69327 -3.03764,2.46535 -0.60732,0.77209 -1.10421,1.23722 -1.10421,1.03367 z"
       id="path50" />
    <path
       style="fill:#000000;stroke-width:0.203408"
       d="m 91.110617,206.97073 c -0.334004,-0.24423 -0.351301,-0.45977 -0.191232,-2.38325 0.32339,-3.88586 0.105004,-5.42468 -0.738564,-5.20408 -0.303937,0.0795 -0.389408,-0.005 -0.389408,-0.38764 0,-0.29669 0.118644,-0.48949 0.301238,-0.48949 0.165681,0 0.342834,-0.20595 0.393687,-0.45768 0.300177,-1.48607 0.405746,-2.70421 0.378987,-4.37328 -0.0166,-1.03483 -0.0297,-2.97993 -0.02936,-4.32244 0.0023,-4.94295 -0.0068,-6.90548 -0.05013,-10.98405 -0.02744,-2.6324 0.05419,-4.80737 0.221796,-5.89886 0.276217,-1.79929 0.306973,-8.21562 0.04618,-9.62337 l -0.14363,-0.77509 -2.329898,2.36238 c -1.956896,1.9842 -2.54851,2.45834 -3.69545,2.96174 -0.751041,0.32965 -1.464629,0.59935 -1.585723,0.59935 -0.339898,0 -0.261133,-1.25595 0.164529,-2.62364 0.407948,-1.31071 1.663516,-2.8491 5.705899,-6.99117 l 1.740643,-1.78357 0.06966,-2.2629 c 0.04799,-1.5624 -0.01016,-2.41257 -0.189121,-2.74637 -0.469267,-0.87683 -0.07407,-0.99117 3.163982,-0.91547 l 2.922202,0.0683 1.227968,-1.49219 c 1.293244,-1.57149 6.366118,-6.47569 6.698418,-6.47569 0.10692,0 0.57631,0.49511 1.04318,1.10025 l 0.84881,1.10024 -0.31736,0.75956 c -0.18886,0.45202 -1.19823,1.61207 -2.49305,2.86521 -1.34046,1.29733 -2.10112,2.17595 -1.98144,2.28877 0.11514,0.1085 3.74163,0.10388 8.90495,-0.0115 6.97056,-0.15569 8.7729,-0.14293 9.02203,0.0638 0.63481,0.52684 0.77395,1.30533 0.79451,4.44496 0.0114,1.73407 0.0937,5.09296 0.18292,7.46423 l 0.16227,4.31138 -0.58794,0.12008 c -2.61026,0.53306 -4.01499,1.40301 -6.61111,4.09425 -2.37698,2.4641 -3.02998,4.0861 -3.05468,7.58771 -0.0131,1.86438 0.0317,2.09057 0.70311,3.54368 0.84331,1.82527 2.43041,3.61229 3.84458,4.3289 1.16937,0.59256 3.18403,1.08808 4.44043,1.09215 0.51004,0.002 1.09326,0.12435 1.29608,0.27265 0.57742,0.42222 0.77191,2.19432 0.43922,4.00194 -0.18086,0.98279 -0.243,2.25686 -0.17461,3.58094 0.13814,2.67491 0.0871,2.72015 -3.09263,2.7357 -1.2337,0.006 -2.97536,0.099 -3.87037,0.2068 -2.91054,0.35029 -3.7976,0.40019 -8.64487,0.48639 -4.87744,0.0867 -6.207344,0.20034 -6.666834,0.56964 -0.185447,0.14904 -0.254437,0.882 -0.241827,2.56935 0.0314,4.21292 0.0113,4.49661 -0.32515,4.49661 -0.427637,0 -1.204416,-0.51878 -2.654028,-1.7726 -0.683668,-0.59132 -1.296487,-1.07511 -1.361826,-1.07511 -0.06537,0 -0.473773,0.49572 -0.907632,1.10158 -0.43386,0.60588 -1.066324,1.33508 -1.405488,1.62047 -0.532383,0.44798 -0.666834,0.48219 -0.983868,0.25037 z m 2.978734,-4.1948 0.534889,-0.71 1.365824,1.47486 c 0.751209,0.81117 1.448743,1.42362 1.550066,1.361 0.101278,-0.0626 0.18422,-1.15788 0.18422,-2.43389 0,-2.00438 -0.04844,-2.3449 -0.355964,-2.5027 -0.642773,-0.32984 -4.618698,-0.46586 -5.020887,-0.17178 -0.385625,0.28198 -0.456237,1.0251 -0.360876,3.79807 l 0.05239,1.52557 0.75769,-0.81555 c 0.416732,-0.44857 0.998399,-1.13507 1.292569,-1.52558 z m 1.758359,-4.60205 1.234161,-0.129 0.227588,-1.30689 c 0.12517,-0.71879 0.220238,-2.69736 0.211251,-4.39685 -0.009,-1.69948 0.04223,-10.72454 0.113675,-20.05569 l 0.129969,-16.96572 -1.698111,1.50666 c -0.933974,0.82866 -2.167187,1.99776 -2.740465,2.59798 -1.285523,1.3459 -1.265268,1.20331 -1.188197,8.3672 0.03794,3.52847 -0.03387,6.16026 -0.208157,7.61941 -0.146385,1.226 -0.230941,3.23975 -0.187901,4.47499 0.133333,3.827 0.118531,9.83381 -0.03207,13.03819 -0.07915,1.68452 -0.07892,3.58384 4.41e-4,4.22073 l 0.14468,1.15798 h 1.379395 c 0.758661,0 1.934754,-0.058 2.613545,-0.12899 z m 12.35217,-1.11915 c 0.8546,-0.12319 2.98347,-0.15002 5.32482,-0.0672 4.85223,0.17184 6.22156,0.0425 6.57676,-0.62118 0.20465,-0.38241 0.20554,-0.67512 0.005,-1.45767 -0.13842,-0.53855 -0.24505,-1.95947 -0.23694,-3.15761 0.008,-1.19813 -0.0729,-2.2326 -0.18011,-2.29885 -0.29818,-0.18427 -2.21446,-0.64559 -3.35257,-0.80708 -1.98132,-0.28113 -3.04611,-1.02961 -5.27675,-3.70916 -0.29933,-0.35957 -0.76501,-1.32067 -1.03483,-2.13579 -0.45425,-1.37222 -0.48542,-1.73073 -0.4206,-4.83829 0.0385,-1.84592 0.10444,-3.53104 0.14656,-3.74471 0.0827,-0.41975 0.21714,-0.58086 2.21234,-2.65107 1.66544,-1.72807 4.80463,-4.1104 6.36481,-4.83027 0.42411,-0.19568 0.90582,-0.49051 1.07048,-0.65518 0.4266,-0.4266 0.54497,-3.5751 0.33462,-8.89983 -0.19587,-4.95742 -0.30248,-5.33675 -1.5666,-5.5739 -0.39362,-0.0738 -2.88861,-0.0145 -5.54443,0.13208 -2.65583,0.14648 -6.43561,0.24424 -8.39952,0.21722 l -3.57072,-0.049 -1.127287,1.18184 -1.127251,1.18183 0.102857,9.8623 c 0.0564,5.42428 0.094,11.2811 0.0833,13.01516 -0.0594,9.61802 -0.209277,17.87773 -0.334797,18.44448 -0.0978,0.44168 -0.0362,0.853 0.194637,1.29939 l 0.33775,0.65314 3.997571,-0.14269 c 2.19868,-0.0785 4.63832,-0.23507 5.42144,-0.34795 z m -7.44583,-33.9687 c -0.22474,-0.78276 -0.52175,-3.88334 -0.56429,-5.89103 l -0.0551,-2.60083 0.67637,-0.11223 c 0.37201,-0.0616 4.58088,-0.15163 9.35304,-0.19976 l 8.67665,-0.0875 0.11499,1.35727 c 0.0632,0.74651 0.049,2.5921 -0.0318,4.10132 l -0.14677,2.74404 -1.01704,0.16344 c -0.55938,0.0899 -4.35804,0.19056 -8.44147,0.22371 -4.08343,0.0331 -7.67614,0.13133 -7.9838,0.2182 -0.30765,0.0868 -0.569,0.1244 -0.58077,0.0833 z m 17.22619,-1.45362 c 0.11427,-0.13279 0.20481,-5.8344 0.10082,-6.35047 -0.12095,-0.60037 -0.14097,-0.60909 -1.23901,-0.53886 -0.61384,0.0393 -1.22151,0.15744 -1.35037,0.26263 -0.12986,0.10602 -3.11486,0.2316 -6.69598,0.2818 -3.55391,0.0498 -6.7654,0.14755 -7.13664,0.2172 l -0.67499,0.12663 0.12739,2.77472 c 0.07,1.5261 0.16785,2.82048 0.21729,2.87643 0.0494,0.0559 2.72951,0.14747 5.95571,0.2034 3.22619,0.0559 5.94191,0.18114 6.03492,0.27823 0.13786,0.14391 4.53048,0.0198 4.66085,-0.13171 z m -1.08472,-0.60642 c -0.10929,-0.13861 -0.25576,-0.7612 -0.32546,-1.38353 -0.15201,-1.35742 -0.51253,-2.46848 -0.75276,-2.32001 -0.0958,0.0592 -0.23603,0.65408 -0.31157,1.32193 -0.16933,1.49653 -0.58698,1.62707 -0.79374,0.24804 -0.16438,-1.09617 -0.45054,-1.73983 -0.70389,-1.58325 -0.0946,0.0584 -0.23681,0.83907 -0.31608,1.73467 -0.1015,1.14677 -0.22414,1.62842 -0.41457,1.62842 -0.14875,0 -0.2994,-0.25172 -0.33481,-0.55937 -0.10444,-0.90799 0.1999,-3.31619 0.45853,-3.62782 0.35198,-0.4241 0.90785,-0.35051 1.28298,0.16986 l 0.32992,0.45767 0.32993,-0.45767 c 0.51084,-0.70863 0.87089,-0.55109 1.3947,0.61023 0.78801,1.74705 0.9119,4.71839 0.15682,3.76083 z m -9.32509,-0.18144 c -0.0865,-0.13983 -0.19735,-1.23033 -0.24651,-2.42331 -0.095,-2.30457 0.0588,-2.74785 0.71598,-2.0642 0.19987,0.20791 0.89618,0.94353 1.54739,1.63468 0.65121,0.69119 1.20962,1.25668 1.24093,1.25668 0.0313,0 0.21859,-0.6865 0.41617,-1.52557 0.25174,-1.06897 0.4515,-1.52556 0.6674,-1.52556 0.33993,0 0.3061,0.44755 -0.21213,2.8047 -0.37507,1.70592 -0.64685,1.95453 -1.27013,1.16176 -0.26388,-0.33562 -0.85062,-1.01845 -1.30386,-1.51741 l -0.82408,-0.90719 v 1.44166 c 0,0.9929 -0.0893,1.5158 -0.28701,1.67984 -0.22043,0.18296 -0.32345,0.17922 -0.44415,-0.0161 z m -5.44738,-0.60454 c -0.1594,-0.79692 -0.13127,-2.35658 0.0545,-3.02417 0.20139,-0.72371 1.56044,-1.46696 2.44622,-1.33781 0.79375,0.11576 1.02596,0.38459 1.03038,1.19296 0.005,0.73731 -0.7328,1.46662 -1.80683,1.78842 -0.7704,0.23082 -0.83894,0.30688 -0.79983,0.8878 0.0805,1.19605 -0.70053,1.61242 -0.92445,0.4928 z m 2.18464,-2.22682 c 0.72981,-0.57408 0.73816,-1.4091 0.014,-1.4091 -0.90151,0 -1.30879,0.35037 -1.30879,1.1259 0,0.84355 0.45566,0.9432 1.29472,0.2832 z m -19.236625,8.44235 c 0.443377,-0.31055 0.44611,-0.33468 0.103085,-0.91533 -0.43806,-0.74158 -0.589695,-0.74921 -0.733438,-0.037 -0.0621,0.30766 -0.174849,0.71957 -0.250588,0.91534 -0.175368,0.45329 0.260422,0.4716 0.880907,0.037 z m 3.110554,-3.10574 c 2.244652,-2.39252 2.659137,-2.99898 2.58822,-3.78698 l -0.063,-0.70085 -2.603056,2.45825 -2.603045,2.45824 0.451869,0.48099 c 0.24851,0.26454 0.558182,0.48099 0.688139,0.48099 0.129957,0 0.82338,-0.62579 1.540955,-1.39064 z m 6.837133,-7.06606 c 0.898147,-0.9985 1.828542,-1.98982 2.06759,-2.20294 0.506403,-0.45151 0.630534,-1.95171 0.16147,-1.95171 -0.150213,0 -1.339335,1.09823 -2.642484,2.4405 -2.352502,2.42312 -2.37033,2.44882 -2.506847,3.6105 l -0.137499,1.17 0.712403,-0.62545 c 0.391824,-0.34399 1.447241,-1.44241 2.345367,-2.4409 z m 0.547501,-4.39415 c -0.122042,-0.19748 -1.792073,-0.18789 -2.519335,0.0144 -0.442486,0.12312 -0.540478,0.32259 -0.764476,1.55614 -0.141315,0.77821 -0.206689,1.5465 -0.145267,1.70733 0.07802,0.20422 0.627451,-0.22071 1.822061,-1.40912 0.940725,-0.93582 1.663889,-1.7768 1.607017,-1.86883 z m 3.276846,0.44291 c 0.202477,-0.22374 0.285307,-0.41382 0.184077,-0.42238 -0.101277,-0.009 -0.344267,-0.0462 -0.540037,-0.0837 -0.259447,-0.0497 -0.355957,0.0648 -0.355957,0.42238 0,0.59711 0.22352,0.62338 0.711917,0.0838 z m 2.869321,-3.01955 c 2.26008,-2.12114 3.78522,-4.00623 3.69995,-4.57317 -0.0331,-0.22021 -0.22965,-0.50126 -0.43671,-0.62455 -0.31511,-0.18764 -0.44776,-0.1247 -0.81363,0.38604 -0.24043,0.33562 -1.17327,1.38826 -2.073,2.3392 -0.89973,0.95094 -2.06853,2.24904 -2.597327,2.88468 l -0.961454,1.15573 0.563227,0.0851 c 0.3098,0.0469 0.594467,0.0989 0.632647,0.1156 0.0382,0.0167 0.931997,-0.77911 1.986297,-1.76863 z"
       id="path24" />
  </g>
</svg>
